<?xml version="1.0" encoding="UTF-8" standalone="no"?>
<svg
   xmlns:dc="http://purl.org/dc/elements/1.1/"
   xmlns:cc="http://creativecommons.org/ns#"
   xmlns:rdf="http://www.w3.org/1999/02/22-rdf-syntax-ns#"
   xmlns:svg="http://www.w3.org/2000/svg"
   xmlns="http://www.w3.org/2000/svg"
   xmlns:sodipodi="http://sodipodi.sourceforge.net/DTD/sodipodi-0.dtd"
   xmlns:inkscape="http://www.inkscape.org/namespaces/inkscape"
   inkscape:version="1.0 (4035a4fb49, 2020-05-01)"
   sodipodi:docname="traquealo_logo_.svg"
   id="svg885"
   viewBox="0 0 1440.000000 1440.000000"
   height="1920"
   width="1920"
   version="1">
  <metadata
     id="metadata891">
    <rdf:RDF>
      <cc:Work
         rdf:about="">
        <dc:format>image/svg+xml</dc:format>
        <dc:type
           rdf:resource="http://purl.org/dc/dcmitype/StillImage" />
        <dc:title></dc:title>
      </cc:Work>
    </rdf:RDF>
  </metadata>
  <defs
     id="defs889" />
  <path
     style="fill:#ffffff;fill-opacity:1"
     id="path879"
     d="M694 32.1C585.8 38.7 494.9 78.9 421 153c-44.9 44.8-79.5 97.3-100.3 152-18.1 47.5-26.9 100.1-25.3 153 1.7 59.9 12 108.6 35.5 167.4 10.8 26.9 26.8 59.7 108.8 222.6 21.3 42.2 22.1 43.7 28.9 50.6 7.3 7.5 12.9 10.4 23.8 12.5 6.9 1.3 447.7 1.2 454.6-.1 7-1.3 15.3-5.2 20.8-9.7 4.8-3.9 11.4-13.4 15.5-22.3 1.4-3 15-30.7 30.2-61.5 97.3-196.7 98.7-199.6 110.1-233 30.3-88.3 28.3-182.8-5.7-276.2-24.2-66.5-64.4-125.6-116.9-171.8-54.4-47.8-119.5-80.6-190.7-95.9-37.9-8.2-75.9-10.9-116.3-8.5zm60 114.4c91.4 11.1 170.7 58 221.2 131 38 54.8 56.9 128.7 50.3 197-5.4 56.8-24.6 106.6-58.3 151.4-9.8 13-34.3 38.3-47.2 48.5-40.1 31.9-88.8 53-143.5 62-14.3 2.4-44.9 5.7-58.5 6.3-22.1 1-49.7-2.3-77.6-9.2-80.6-20-150.5-72.3-190.3-142.2-18.9-33.4-30.6-68.9-36.3-110.3-1.9-14.1-1.6-54.4.6-70 4.8-35.4 14.8-67 31.4-99.3 25.6-50.3 66.1-93.7 114.7-123.2 37.9-23 83.5-38.2 127.5-42.4 15.1-1.5 52.6-1.2 66 .4z" />
  <path
     style="fill:#F89C12;fill-opacity:1"
     id="path883"
     d="m 519.9,1006.7 c 4.3,8.7 9.9,20.1 12.4,25.3 2.5,5.2 28.8,58.5 58.6,118.4 29.8,59.9 54.1,109 54.1,109.1 0,0.1 16.8,34.1 37.4,75.6 33.3,67.1 37.6,75.1 38.4,72.9 0.6,-1.4 12.8,-26.4 27.2,-55.5 14.4,-29.2 37.8,-76.6 52,-105.5 14.2,-28.9 38.7,-78.6 54.4,-110.4 15.7,-31.8 28.6,-58 28.6,-58.2 0,-0.2 8.4,-17.1 18.6,-37.6 10.2,-20.5 19.8,-40.1 21.4,-43.6 l 2.9,-6.2 H 512 Z" />
  <path
     id="path9484"
     d="m 511.50344,352.20513 c -10.36275,0.0579 -11.53414,1.06171 -15.08049,4.89825 -3.60352,3.89851 -4.16568,5.52095 -3.50971,9.71936 1.85799,11.89264 1.679,12.62868 -3.54833,16.16033 -2.74659,1.85557 -9.42487,5.26093 -14.84906,7.55949 -10.65278,4.51432 -12.53086,6.65894 -9.17937,10.49073 1.18519,1.35497 3.43811,5.44019 5.01395,9.06366 2.54393,5.84959 3.54511,6.73193 8.94796,7.90661 5.38186,1.17016 6.29801,1.96944 8.06094,7.05809 1.09622,3.16447 2.03224,6.79908 2.04408,8.06089 0.0115,1.26187 1.31048,3.46633 2.89273,4.89824 3.85737,3.49091 3.5966,6.4609 -0.81,9.98935 -3.19585,2.55909 -3.68212,4.13977 -3.85688,12.30345 -0.1361,6.36439 -0.98083,10.36281 -2.66119,12.57344 -1.35776,1.78616 -2.46842,5.43249 -2.46842,8.09945 0,2.66697 -0.76272,6.27654 -1.69701,8.02232 -0.93443,1.74581 -1.4961,3.30945 -1.23421,3.4712 0.26176,0.16177 2.44768,0.95718 4.82105,1.7356 5.18709,1.70131 4.71625,3.68266 -1.31134,5.63106 -4.13779,1.33754 -4.49398,2.003 -4.89818,9.02511 -0.3915,6.79795 -0.15041,7.52092 2.50691,7.52092 1.99298,2e-5 2.96985,0.95039 2.96985,2.89266 0,2.10965 0.94985,2.89267 3.58684,2.89267 2.2375,0 3.58698,-0.81736 3.58698,-2.15986 0,-1.18669 -0.636,-2.15985 -1.42713,-2.15985 -0.79111,-2e-5 -1.42697,-0.97319 -1.42697,-2.15988 0,-2.29292 5.0617,-3.03253 6.36378,-0.92564 0.42471,0.68721 3.38309,1.68479 6.59534,2.19843 3.21226,0.51362 6.22249,1.87445 6.67235,3.04694 1.10646,2.88336 9.14089,2.88646 9.14089,0 0,-1.18669 -0.64119,-2.15985 -1.42712,-2.15985 -0.78582,-2e-5 -0.0225,-1.6477 1.69702,-3.62548 1.71976,-1.9778 4.30725,-3.5869 5.74683,-3.5869 3.02169,0 3.36122,1.57558 0.88701,4.04972 -1.34243,1.34254 -1.03413,1.69704 1.42712,1.69704 1.74047,2e-5 3.16263,-0.5663 3.16263,-1.27278 0,-2.18375 4.18371,-3.01144 7.94519,-1.58132 2.37214,0.90191 3.54834,0.85875 3.54834,-0.11569 0,-0.80964 2.36312,0.78668 5.20672,3.54834 4.64258,4.5088 7.46668,5.69693 15.15762,6.40243 1.29222,0.11848 2.68895,-1.15181 3.12401,-2.81553 0.71917,-2.75023 1.43489,-2.9169 8.06094,-2.00558 4.99286,0.68669 7.28946,0.47957 7.28946,-0.6171 0,-0.97842 1.36601,-1.2323 3.50982,-0.69426 2.10815,0.52908 5.42915,-0.11979 8.29225,-1.61987 2.61986,-1.37255 5.69659,-2.95394 6.86525,-3.50977 1.16881,-0.55583 2.47914,-2.45217 2.89272,-4.20401 0.95096,-4.02829 3.62288,-4.68369 3.62548,-0.88707 9.9e-4,1.5713 1.12065,3.08641 2.50691,3.35549 1.65038,0.32036 2.53111,-0.40182 2.54554,-2.12129 0.0188,-2.23027 0.23795,-2.29765 1.46562,-0.46282 1.25802,1.87997 1.69678,1.80547 3.43268,-0.46283 1.27074,-1.66061 2.32599,-2.05913 2.93124,-1.07993 1.17743,1.90513 12.10716,7.28952 14.81043,7.28952 1.09449,0 2.97875,-0.9732 4.16542,-2.15985 2.8904,-2.89038 7.71378,-2.76688 7.71378,0.19282 0,3.66289 20.81272,2.07436 27.92381,-2.12128 8.00014,-4.7202 16.73536,-4.24609 22.17708,1.19563 2.37338,2.37335 5.26159,4.31972 6.40242,4.31972 1.14082,10e-6 3.79328,1.3504 5.90104,3.00837 3.59896,2.83105 4.06789,2.88093 7.40522,0.69423 1.9545,-1.28066 3.54833,-2.87143 3.54833,-3.54833 3e-5,-0.67689 1.95489,-2.05143 4.35827,-3.04694 3.76041,-1.5576 5.04824,-1.45935 9.33366,0.84852 2.90485,1.56432 4.97539,3.81723 4.97539,5.36107 0,1.99893 0.74122,2.39209 2.93123,1.69703 1.59481,-0.50618 5.79908,-1.11103 9.37223,-1.34992 3.5732,-0.23885 7.72951,-1.50705 9.21795,-2.85409 2.49449,-2.25742 3.02802,-2.30191 6.78811,-0.19285 l 4.0883,2.31414 -5.01396,-0.38569 c -3.78998,-0.28803 -5.09129,0.21005 -5.47676,2.12129 -0.44736,2.21753 0.74071,2.54553 10.18218,2.54553 7.7718,2e-5 11.23642,-0.59528 12.53485,-2.15986 0.98489,-1.18667 2.70071,-2.15985 3.81834,-2.15985 1.11762,0 3.60531,-1.07598 5.5539,-2.35269 2.60146,-1.70455 5.21407,-2.04284 9.83505,-1.34989 5.45392,0.81789 6.91779,0.45054 10.79927,-2.81555 l 4.474,-3.77975 4.35828,3.12408 c 2.95994,2.10773 4.95311,2.66288 6.13243,1.7356 0.96117,-0.75551 4.96676,-1.80434 8.87083,-2.31412 3.9041,-0.50976 8.57143,-1.86521 10.37502,-3.04693 1.80344,-1.18176 4.27603,-2.15987 5.51534,-2.15987 1.23936,0 2.63011,-0.97319 3.08551,-2.15985 0.45539,-1.18666 1.64213,-2.15986 2.62268,-2.15986 0.98043,-1e-5 3.8304,-1.03094 6.32529,-2.27556 3.91645,-1.95383 4.51256,-2.9909 4.51256,-7.7909 -3e-5,-5.14646 0.30381,-5.53461 3.89546,-5.28394 3.51718,0.24549 3.96549,-0.33069 4.97539,-6.0553 0.6129,-3.47303 2.20485,-7.50602 3.50974,-8.94797 1.30509,-1.44199 1.98246,-3.65215 1.50419,-4.89825 -0.50544,-1.31716 -0.007,-2.60956 1.23421,-3.08551 1.17347,-0.45024 2.15985,-1.94256 2.15985,-3.3555 -3e-5,-3.17605 4.39188,-5.08828 5.93961,-2.5841 0.9096,1.47169 1.47947,1.42257 2.96979,-0.1542 1.33954,-1.41742 1.41766,-2.10684 0.23142,-2.54554 -0.90507,-0.33462 -1.30623,-1.94529 -0.88708,-3.54833 0.75713,-2.89527 2.82634,-2.97159 9.56507,-0.38569 1.72148,0.66063 2.31413,-0.0221 2.31413,-2.73839 -10e-6,-2.90707 0.54088,-3.45902 2.85408,-2.8541 2.00066,0.5232 2.89266,0.0357 2.89266,-1.58131 2e-5,-1.27898 0.63594,-2.31413 1.42705,-2.31413 0.79112,0 1.46563,0.97318 1.46563,2.15986 3e-5,2.80028 6.992,2.90108 8.06087,0.11569 0.43163,-1.12486 0.0699,-3.40849 -0.80993,-5.05254 -1.18051,-2.20603 -1.19818,-2.96978 0,-2.96978 0.89326,0 1.97744,1.27185 2.39125,2.85407 0.48675,1.86166 1.94703,2.89267 4.16545,2.89267 3.62636,0 4.6913,-2.13167 1.65846,-3.35548 -0.98889,-0.39903 -0.29088,-0.78607 1.58132,-0.84852 2.67442,-0.0892 3.25216,-0.74828 2.66125,-3.00837 -0.48905,-1.86972 -0.042,-2.85409 1.27277,-2.85409 3.6708,0 2.1074,-4.25765 -1.92844,-5.24536 -2.17559,-0.53244 -4.44422,-1.67846 -5.05253,-2.54556 -0.74955,-1.0682 -1.75743,-0.73144 -3.08549,1.00282 -1.82607,2.38438 -2.01885,2.39295 -2.89266,0.11567 -0.52472,-1.36751 -0.14597,-2.9962 0.88708,-3.66405 1.4151,-0.91479 1.47385,-1.45839 0.15419,-2.31412 -1.08312,-0.70231 -1.25654,-1.8784 -0.46283,-3.16264 0.75475,-1.22126 0.65232,-3.1748 -0.26997,-4.89825 -1.26193,-2.35768 -1.01644,-3.26316 1.50418,-4.9368 3.53082,-2.34436 4.27855,-6.76338 0.92566,-5.47678 -2.73614,1.04995 -2.68072,-1.83056 0.0772,-5.47678 1.16136,-1.53564 2.08273,-3.72067 2.08273,-4.85966 -10e-6,-3.06622 -10.11783,-1.10085 -12.882,2.50698 -1.86621,2.43576 -3.03237,2.6903 -7.71378,1.61987 -3.0245,-0.69157 -6.60719,-2.26396 -7.98373,-3.50975 -1.37641,-1.24578 -4.93259,-2.45232 -7.90663,-2.66125 -4.65561,-0.32708 -5.54563,-0.9389 -6.24814,-4.43542 -0.67732,-3.37197 -1.36815,-3.92248 -4.0883,-3.23977 -1.866,0.46831 -3.50661,0.12538 -3.81831,-0.80996 -0.40981,-1.22933 -1.31799,-1.23496 -3.62547,0 -2.55331,1.3665 -3.41156,1.19134 -4.97537,-1.04135 -1.0844,-1.54812 -4.63421,-3.15521 -8.33088,-3.77976 -3.53999,-0.59806 -7.8331,-2.02787 -9.56506,-3.16263 -2.09158,-1.37054 -4.84528,-1.74346 -8.17661,-1.1185 -2.75842,0.51747 -8.59794,0.13609 -12.99769,-0.84851 -6.42833,-1.43864 -8.45539,-1.42655 -10.22075,0.0385 -2.78084,2.30786 -17.10941,0.73878 -22.56276,-2.4684 -4.81548,-2.83202 -8.9787,-1.47883 -7.71376,2.50695 0.7087,2.23283 0.26955,2.89268 -1.96703,2.89268 -1.58873,0 -3.38315,-0.82385 -4.01116,-1.81275 -1.12282,-1.76836 -1.37802,-2.53911 -1.73559,-5.39964 -0.32885,-2.63018 -2.58239,-1.4841 -4.24257,2.15986 -1.85149,4.06339 -4.79255,4.62154 -7.44379,1.42705 -1.23717,-1.49067 -1.30846,-2.15986 -0.19284,-2.15986 0.88789,0 1.61989,-0.63592 1.61989,-1.42705 -4e-5,-0.7911 -1.27187,-1.42703 -2.85409,-1.42703 -1.5822,0 -2.89268,0.63593 -2.89268,1.42703 2e-5,2.00702 -9.58025,1.81846 -13.38337,-0.26997 -1.72813,-0.94889 -7.69132,-1.83489 -13.22911,-1.96701 -13.72409,-0.32747 -24.67542,-1.72726 -28.07811,-3.54834 -1.93574,-1.03601 -2.85412,-1.01699 -2.85412,0 -10e-6,0.81898 -2.11249,1.46561 -4.70538,1.46561 -2.59289,0 -6.16919,1.03161 -7.94519,2.27558 -2.93068,2.05276 -4.43331,2.06624 -16.23747,0.0385 -7.15326,-1.22877 -13.67328,-2.65055 -14.50187,-3.16265 -0.82862,-0.51208 -1.92451,-0.27767 -2.42986,0.53998 -0.63117,1.02126 -3.24238,1.01372 -8.36939,0 -5.79311,-1.14545 -10.71499,-0.90727 -21.9071,0.96421 -13.07687,2.18657 -15.24995,2.17221 -23.44985,0.19285 -9.46634,-2.28501 -28.44221,-2.71675 -33.63203,-0.77138 -4.51323,1.69178 -24.31726,-1.18731 -29.69801,-4.31972 -3.47725,-2.02421 -7.83311,-2.78379 -16.89315,-2.9698 -5.9248,-0.12162 -10.43063,-0.21212 -13.88478,-0.19283 z m 417.58475,33.74775 c -0.28943,-0.007 -0.5016,0.0388 -0.61709,0.15419 -0.39094,0.39105 -0.35338,1.65505 0.0772,2.77695 0.78248,2.03888 8.21517,2.94514 8.21517,1.00278 2e-5,-1.17592 -5.64926,-3.89467 -7.6752,-3.93401 z m 11.26212,3.85688 c -1.1867,0 -2.15987,0.6745 -2.15987,1.46561 0,0.7911 0.97319,1.42704 2.15987,1.42704 1.18667,-10e-6 2.15989,-0.63594 2.15989,-1.42704 0,-0.79111 -0.97322,-1.46561 -2.15989,-1.46561 z m 6.55677,2.89265 c -0.74448,-10e-6 -1.74812,0.63593 -2.23704,1.42705 -0.48891,0.79113 0.11684,1.46562 1.34989,1.46562 1.23322,0 2.23703,-0.67449 2.23703,-1.46562 0,-0.79112 -0.60541,-1.42705 -1.34988,-1.42705 z m -4.42951,94.61312 c -0.79104,-1e-5 -1.42706,0.63593 -1.42706,1.42705 1.6e-4,0.79113 0.63602,1.46562 1.42706,1.46562 0.79122,0 1.42707,-0.67449 1.42707,-1.46562 0,-0.79112 -0.63585,-1.42705 -1.42707,-1.42705 z m -8.5297,-91.72045 c -0.39804,0.0373 -0.7692,0.19069 -1.04136,0.46283 -0.45914,0.45914 -0.42991,1.82616 0.0385,3.04692 1.10313,2.87466 5.24537,2.90967 5.24537,0.0385 0,-1.86602 -2.51769,-3.71012 -4.24256,-3.54834 z m 15.89643,94.69033 c -0.9546,0.0999 -1.61993,1.03751 -1.61993,2.77696 0,1.58223 0.70212,2.89266 1.58144,2.89266 1.05419,0 1.29196,1.73741 0.65563,5.12966 -0.60254,3.21105 -0.32872,5.93343 0.73272,7.21237 2.45776,2.96117 4.20408,2.49785 4.20408,-1.07993 0,-2.70848 0.60357,-2.39751 4.62821,2.31414 l 4.62833,5.39962 2.58402,-3.16264 c 1.41517,-1.74762 2.54564,-2.46009 2.54564,-1.58134 0,0.87877 0.9731,1.58134 2.15979,1.58134 1.18668,-2e-5 2.15979,-1.26915 2.15979,-2.81554 0,-2.07444 1.33828,-3.04432 5.05245,-3.74116 3.67773,-0.68993 5.01416,-1.68513 5.01416,-3.70261 0,-2.25658 -0.90339,-2.70405 -4.97556,-2.42982 -2.74073,0.18458 -5.42274,-0.1389 -5.97813,-0.69425 -0.55518,-0.55533 0.12017,-1.00279 1.50424,-1.00279 1.38439,0 2.2532,-0.78526 1.92847,-1.77416 -0.6811,-2.0738 -8.29224,-3.38527 -8.29224,-1.42704 0,2.33302 -13.26682,0.91322 -15.11907,-1.6199 -1.1815,-1.61572 -2.43966,-2.37551 -3.39404,-2.27557 z m -13.84629,5.66962 c -1.18665,0 -2.15986,0.63595 -2.15986,1.42705 0,0.7911 0.90378,1.42705 2.00566,1.42705 1.10223,2e-5 2.37955,1.03873 2.85414,2.27556 0.87448,2.27869 3.77962,1.59986 3.77962,-0.88707 0,-0.74443 -0.97304,-1.38849 -2.15985,-1.38849 -1.18665,2e-5 -2.15986,-0.63595 -2.15986,-1.42705 0,-0.7911 -0.97305,-1.42705 -2.15985,-1.42705 z m -3.55432,-90.29341 c -0.79114,0 -1.46562,0.97319 -1.46562,2.15986 0,1.18666 0.67451,2.15986 1.46562,2.15986 0.79107,0 1.42704,-0.9732 1.42704,-2.15986 3e-5,-1.18667 -0.63592,-2.15986 -1.42704,-2.15986 z m -7.90663,1.42704 c -1.18662,0 -2.15985,0.63595 -2.15985,1.42705 5e-5,0.7911 0.9732,1.46563 2.15985,1.46563 1.18671,0 2.15987,-0.67453 2.15987,-1.46563 3e-5,-0.7911 -0.97319,-1.42705 -2.15987,-1.42705 z m 11.65382,141.51282 c -9.12357,-0.039 -15.86988,1.44992 -24.64539,4.78253 -7.12003,2.70387 -16.32669,5.19798 -20.48013,5.55393 -6.97618,0.59786 -7.55949,0.95429 -7.55949,4.35826 -4e-5,6.26042 5.20301,10.33646 13.19051,10.33646 3.81763,0 6.94247,-0.60602 6.94247,-1.31134 0,-1.94673 7.72316,-3.51992 8.33088,-1.69703 1.16328,3.49035 16.58192,0.44056 18.1273,-3.5869 0.50011,-1.30317 2.84328,-2.04415 6.44108,-2.04415 3.13651,0 6.05466,-0.81962 6.51807,-1.81274 0.67123,-1.43837 1.02587,-1.43839 1.69694,0 1.12575,2.41222 4.8886,2.28691 7.7138,-0.26997 1.26417,-1.1441 6.09401,-2.93727 10.76083,-3.97259 14.32051,-3.17708 11.82936,-6.21757 -7.09675,-8.67801 -8.14365,-1.05868 -14.46586,-1.63503 -19.94012,-1.65845 z M 640.43899,512.07303 c -0.79112,0 -1.42699,0.67451 -1.42699,1.46561 -1.2e-4,0.79112 0.63587,1.42706 1.42699,1.42706 0.79113,10e-6 1.42712,-0.63594 1.42712,-1.42706 0,-0.7911 -0.63601,-1.46561 -1.42712,-1.46561 z m -104.17438,4.31972 c -3.85699,10e-6 -5.02937,2.09972 -1.88992,3.35549 2.4868,0.99478 4.37797,0.40368 5.05258,-1.61989 0.34163,-1.02465 -0.93355,-1.7356 -3.16266,-1.7356 z m -26.65112,7.21238 c -4.22233,0 -6.56175,1.65328 -4.82104,3.39406 1.15767,1.15763 3.84478,1.16801 6.7881,0.0385 3.72805,-1.43058 2.5737,-3.43263 -1.96706,-3.43263 z"
     style="fill:#ffffff;fill-opacity:1;fill-rule:nonzero;stroke-width:24.5607;stroke-miterlimit:4;stroke-dasharray:none" />
</svg>
